<svg xmlns="http://www.w3.org/2000/svg" id="Ebene_2" width="350" height="350" version="1.1"><defs id="defs1"><style id="style1">.cls-1{fill:#005092}.cls-4,.cls-5{fill:#1d1d1b}.cls-5{fill-rule:evenodd}</style></defs><g id="Ebene_1-2" transform="translate(34.227 114.738)"><g id="g27"><path id="path1" d="M38.87 55.87c.08-.92.48-3.04 2.21-4.72 1.85-1.8 4.21-2.21 5.03-2.3.19-.02 24.11 0 24.11 0s2.74-.45 5.62 2.42c1.94 1.94 2.15 4.45 2.17 5.1l.05.77v5.07H43.91v.5s.17 2.47 2.71 2.47h31.44v5.05h-31.4s-2.74.45-5.62-2.42c-2.25-2.24-2.18-5.25-2.18-5.25v-6.23c0-.12-.02-.26 0-.46zm34.08.49c-.09-.57-.53-2.46-2.69-2.46H46.2c-2.29.16-2.26 2.53-2.26 2.53v.69h28.98v-.77h.04z" class="cls-1"/><path id="path2" d="M82.33 70.04V65h27.76s2.4-.03 2.4-2.57v-.39H82.3v-5.09c.06-.55.06-1.08.07-1.17.1-.86.56-3.17 2.32-4.98 2.21-2.28 5.18-2.21 5.18-2.21h27.72v5.07H89.98s-2.37-.03-2.53 2.26v1.04h30.14v5.09l-.03.35s.51 2.74-2.36 5.62c-2.24 2.25-5.25 2.03-5.25 2.03H82.34Z" class="cls-1"/><path id="path3" d="M156.82 53.65V43.14s0-2.46 2.51-2.56c2.46.1 2.53 2.56 2.53 2.56v5.44h22.68s2.97-.06 5.18 2.21c1.77 1.82 2.22 4.13 2.32 4.98.03.22.02 6.55.02 6.55s.51 2.74-2.36 5.62c-2.24 2.25-5.25 2.03-5.25 2.03h-27.61zm5.05 11.28h22.73s2.4-.03 2.4-2.57l-.03-6.45c-.16-2.29-2.53-2.26-2.53-2.26h-22.57z" class="cls-1"/><path id="path4" d="M121.87 43.14s0-2.46 2.51-2.56c2.46.1 2.53 2.56 2.53 2.56v5.19h8.37v5.13h-8.37v8.99s.17 2.47 2.71 2.47h10.88v5.05h-10.84s-2.74.45-5.62-2.42c-2.25-2.24-2.18-5.25-2.18-5.25V43.13z" class="cls-1"/><path id="path5" d="M0 53.65V43.14s0-2.46 2.51-2.56c2.46.1 2.53 2.56 2.53 2.56v5.44h22.68s2.97-.06 5.18 2.21c1.77 1.82 2.22 4.13 2.32 4.98.03.22.02 6.55.02 6.55s.51 2.74-2.36 5.62c-2.24 2.25-5.25 2.03-5.25 2.03H.02Zm5.05 11.28h22.73s2.4-.03 2.4-2.57l-.03-6.45c-.16-2.29-2.53-2.26-2.53-2.26H5.05Z" class="cls-1"/><path id="path6" d="M224.06 81.13v7.24h1.17v-3.35c0-1.38.06-1.72.43-2.14.51-.61 1.44-.84 3.27-.84 1.62 0 2.36.17 2.74.63.34.38.42.81.42 2.11v3.6h1.17V84.3c0-1.36-.16-1.97-.61-2.45-.58-.61-1.46-.8-3.59-.8-2.44 0-3.26.25-3.74 1.19h-.09v-1.09h-1.17z" class="cls-4"/><path id="path7" d="M214.44 84.02c.13-1.61.76-1.99 3.32-1.99 2.89 0 3.61.39 3.63 1.99zm6.99 2.11c-.05.47-.08.59-.27.78-.4.42-1.04.55-2.73.55-2.23 0-3.03-.14-3.48-.59-.35-.36-.51-.92-.55-1.86h8.28c-.03-1.72-.18-2.38-.75-3.02-.67-.75-1.57-.96-4.14-.96-1.8 0-2.65.11-3.26.44-.96.52-1.39 1.53-1.39 3.3 0 1.49.35 2.49 1.06 3.02.66.5 1.8.67 4.36.67 3.01 0 4.06-.6 4.11-2.33z" class="cls-5"/><path id="path8" d="M235.95 84.02c.13-1.61.75-1.99 3.32-1.99 2.89 0 3.61.39 3.62 1.99zm6.99 2.11c-.05.47-.08.59-.27.78-.4.42-1.04.55-2.73.55-2.23 0-3.03-.14-3.48-.59-.35-.36-.51-.92-.55-1.86h8.28c-.03-1.72-.18-2.38-.75-3.02-.67-.75-1.57-.96-4.14-.96-1.8 0-2.64.11-3.25.44-.96.52-1.4 1.53-1.4 3.3 0 1.49.35 2.49 1.06 3.02.66.5 1.79.67 4.36.67 3.01 0 4.06-.6 4.11-2.33z" class="cls-5"/><path id="path9" d="M245.57 81.13v7.24h1.17v-3.35c0-2.55.5-2.99 3.32-2.99 1.83 0 2.23.33 2.23 1.83v.52h1.2v-.75c0-.94-.26-1.63-.76-2.05s-1.09-.55-2.55-.55-2.04.06-2.49.28c-.4.19-.69.44-.88.78h-.08v-.97h-1.17z" class="cls-4"/><path id="path10" d="M259.38 82.03c2.85 0 3.46.42 3.46 2.42 0 1.24-.21 1.86-.75 2.24-.45.3-1.22.41-2.87.41-1.34 0-2.18-.08-2.58-.25-.71-.31-1.03-1-1.03-2.27 0-1.14.28-1.86.82-2.16.48-.28 1.33-.39 2.95-.39m3.46-.91.02.92h-.06c-.21-.3-.37-.47-.71-.66-.51-.28-1.06-.36-2.71-.36-1.91 0-2.78.09-3.42.36-1.09.47-1.6 1.47-1.6 3.16 0 1.45.35 2.36 1.12 2.94.6.44 1.57.61 3.66.61 2.39 0 2.98-.16 3.63-.94h.08c-.06 1.49-.13 1.84-.47 2.25-.4.5-1.25.66-3.5.66-2.39 0-3.02-.28-3.11-1.34h-1.22c0 .67.08.94.35 1.3.59.78 1.62 1.05 4.11 1.05 2.77 0 3.62-.17 4.3-.89.56-.61.72-1.41.72-3.63v-5.43z" class="cls-5"/><path id="path11" d="m264.82 81.13 4.18 7.24h.4c-.7 1.27-1.11 1.5-2.66 1.5-.22 0-.31 0-.55-.03v1.05c.26.02.4.02.66.02 1.22 0 1.78-.13 2.34-.5.59-.4.98-.92 1.83-2.52l3.63-6.75h-1.38l-3.34 6.32h-.14l-3.59-6.32h-1.38z" class="cls-4"/><path id="polygon11" d="M182.44 87.32h-.13l-2.27-6.19h-1.85l-2.24 6.19h-.12l-2.88-6.19h-1.32l3.43 7.24h1.73l2.26-6.17h.12l2.29 6.17h1.75l3.45-7.24h-1.37z" class="cls-4"/><path id="path12" d="M187.44 77.94v1.36h1.17v-1.36zm0 3.19v7.24h1.17v-7.24z" class="cls-5"/><path id="path13" d="M191.41 79.33v1.8h-1.83v.98h1.83v3.5c0 1.14.09 1.6.41 2.03.43.58 1.28.81 2.87.81s2.37-.25 2.81-.89c.31-.44.4-.91.4-2.03v-.45h-1.17v.45c0 .89-.05 1.16-.22 1.42-.26.39-.66.5-1.7.5-1.12 0-1.65-.14-1.96-.5-.24-.3-.27-.34-.27-1.72V82.1h5.2v-.98h-5.2v-1.8h-1.17z" class="cls-4"/><path id="path14" d="M199.12 77.94v10.43h1.17v-3.41c0-1.37.06-1.7.47-2.14.5-.56 1.44-.8 3.25-.8 1.6 0 2.34.17 2.73.62.35.42.42.81.42 2.31v3.41h1.17v-3.77c0-1.72-.13-2.28-.63-2.78-.58-.59-1.49-.8-3.54-.8-2.42 0-3.27.27-3.77 1.17h-.1v-4.25h-1.17z" class="cls-4"/><path id="path15" d="M86.27 85.74c-.05 1.41-.58 1.7-2.98 1.7-1.56 0-2.45-.09-2.92-.31-.67-.3-.96-1-.96-2.3 0-2.36.53-2.8 3.4-2.8s3.37.31 3.4 1.67h1.22c-.05-.94-.21-1.44-.64-1.86-.59-.61-1.6-.81-3.98-.81-1.78 0-2.65.13-3.29.47-.93.5-1.36 1.52-1.36 3.25 0 1.5.34 2.47 1.03 3.02.66.53 1.68.69 4.33.69 1.92 0 2.76-.2 3.34-.8.43-.44.61-.95.63-1.92h-1.2z" class="cls-4"/><path id="path16" d="M93.39 82.03c1.51 0 2.31.08 2.76.28.75.33 1.03.97 1.03 2.39 0 1.27-.19 1.91-.67 2.28-.48.36-1.14.47-2.87.47-1.38 0-2.09-.06-2.57-.23-.86-.3-1.17-.94-1.17-2.44 0-2.33.53-2.75 3.5-2.75zm-.19-1c-1.68 0-2.52.11-3.13.42-.98.5-1.43 1.53-1.43 3.25s.37 2.71 1.32 3.24c.67.39 1.59.52 3.77.52 1.89 0 2.73-.11 3.37-.47.93-.52 1.33-1.5 1.33-3.25s-.37-2.63-1.27-3.19c-.64-.39-1.56-.52-3.96-.52" class="cls-5"/><path id="path17" d="M99.86 81.13v7.24h1.17v-3.35c0-1.38.06-1.72.43-2.14.51-.61 1.44-.84 3.27-.84 1.62 0 2.36.17 2.74.63.34.38.42.81.42 2.11v3.6h1.17V84.3c0-1.36-.16-1.97-.61-2.45-.58-.61-1.46-.8-3.59-.8-2.44 0-3.26.25-3.74 1.19h-.09v-1.09h-1.17z" class="cls-4"/><path id="path18" d="M110.41 85.85v.37c0 .89.18 1.34.69 1.71.56.41 1.57.53 4.11.53 2.12 0 3.19-.11 3.72-.39.61-.33.88-.86.88-1.75 0-1.42-.69-2.05-2.39-2.11-.77-.03-2.92-.08-3.41-.06-1.78.03-2.21-.15-2.21-.95 0-.38.11-.64.34-.8.34-.25 1.31-.36 2.97-.36 1.76 0 2.63.12 2.97.45.18.17.22.34.22.88h1.25c0-.86-.06-1.09-.34-1.42-.55-.69-1.55-.91-4.06-.91-2.18 0-3.29.14-3.82.47-.53.34-.79.89-.79 1.67 0 1.45.69 1.97 2.65 2 2.84.03 3.08.03 3.4.03 1.49-.02 1.97.27 1.97 1.13 0 .36-.1.61-.32.78-.35.28-.93.34-2.98.34-3.34 0-3.59-.09-3.58-1.41v-.2z" class="cls-4"/><path id="path19" d="M121.14 81.13v4c0 1.5.19 2.19.72 2.64.58.5 1.52.69 3.35.69 2.31 0 3.08-.25 3.67-1.17h.06v1.08h1.17v-7.24h-1.17v3.58c0 1.05-.11 1.52-.42 1.89-.51.61-1.41.86-3.19.86-1.38 0-2.07-.14-2.49-.48-.43-.37-.54-.83-.54-2.19v-3.66h-1.17z" class="cls-4"/><path id="polygon19" d="M132.93 77.94v10.43h-1.17V77.94z" class="cls-4"/><path id="path20" d="M135.74 79.33v1.8h-1.83v.98h1.83v3.5c0 1.14.1 1.6.42 2.03.43.58 1.28.81 2.87.81s2.37-.25 2.81-.89c.31-.44.4-.91.4-2.03v-.45h-1.17v.45c0 .89-.05 1.16-.22 1.42-.26.39-.66.5-1.7.5-1.12 0-1.65-.14-1.96-.5-.24-.3-.27-.34-.27-1.72V82.1h5.2v-.98h-5.2v-1.8h-1.17z" class="cls-4"/><path id="path21" d="M143.45 77.94v1.36h1.17v-1.36zm0 3.19v7.24h1.17v-7.24z" class="cls-5"/><path id="path22" d="M146.28 81.13v7.24h1.17v-3.35c0-1.38.06-1.72.43-2.14.51-.61 1.44-.84 3.27-.84 1.62 0 2.36.17 2.74.63.34.38.42.81.42 2.11v3.6h1.17V84.3c0-1.36-.16-1.97-.61-2.45-.58-.61-1.46-.8-3.59-.8-2.44 0-3.26.25-3.74 1.19h-.1v-1.09h-1.17z" class="cls-4"/><path id="path23" d="M161.9 82.03c2.85 0 3.47.42 3.47 2.42 0 1.24-.21 1.86-.75 2.24-.45.3-1.22.41-2.87.41-1.35 0-2.18-.08-2.58-.25-.7-.31-1.03-1-1.03-2.27 0-1.14.27-1.86.82-2.16.48-.28 1.33-.39 2.95-.39zm3.47-.91v.92h-.05c-.21-.3-.37-.47-.7-.66-.51-.28-1.06-.36-2.71-.36-1.91 0-2.77.09-3.41.36-1.09.47-1.6 1.47-1.6 3.16 0 1.45.35 2.36 1.12 2.94.59.44 1.57.61 3.66.61 2.39 0 2.98-.16 3.63-.94h.08c-.06 1.49-.13 1.84-.47 2.25-.4.5-1.25.66-3.5.66-2.39 0-3.01-.28-3.11-1.34h-1.22c0 .67.08.94.35 1.3.59.78 1.62 1.05 4.1 1.05 2.78 0 3.63-.17 4.3-.89.56-.61.72-1.41.72-3.63v-5.43z" class="cls-5"/><path id="path24" d="M206.24 50.98s0-2.46 2.51-2.56c2.46.1 2.53 2.56 2.53 2.56v11.48s.17 2.47 2.71 2.47h24.06c2.3-.16 2.26-2.53 2.26-2.53V51.07s-.06-2.43 2.52-2.48c2.36.02 2.55 2.48 2.55 2.48v11.44s.06 2.97-2.21 5.18c-1.85 1.8-4.21 2.21-5.03 2.3-.19.02-24.11 0-24.11 0s-2.74.45-5.62-2.42c-2.25-2.24-2.18-5.25-2.18-5.25V50.99z" class="cls-1"/><path id="path25" d="M196.7 43.14s0-2.46 2.51-2.56c2.46.1 2.53 2.56 2.53 2.56v26.83h-5.04z" class="cls-1"/><path id="polygon25" d="M152.1 53.6v5.12h-11.42V53.6z" class="cls-1"/><path id="path26" d="M243.41 78.99c16.91-12.24 32.28-27.84 37.29-46.12 11.91-43.43-105.88-2.5-105.88-2.5s107.33-66.55 94.46-2.61c-4.59 22.79-14.48 39.29-25.87 51.22V79Z" style="fill:#fbba00;fill-rule:evenodd"/><path id="path27" d="M232.52 90.31c-24.91 26.02-57.07 30.21-57.07 30.21s30.45-10.95 57.07-30.21" style="fill:#fbba00"/></g></g></svg>