<svg xmlns="http://www.w3.org/2000/svg" viewBox="0 0 640 512"><!--! Font Awesome Pro 6.4.2 by @fontawesome - https://fontawesome.com License - https://fontawesome.com/license (Commercial License) Copyright 2023 Fonticons, Inc.--><path d="M416 176c0 97.2-93.1 176-208 176-38.2 0-73.9-8.7-104.7-23.9-7.5 4-16 7.9-25.3 11.4-18.2 6.9-40.2 12.5-62 12.5-6.9 0-13.1-4.5-15.2-11.1S1 327.1 6.6 323l.2-.2c.2-.2.6-.4 1.1-.8 1-.8 2.5-2 4.3-3.7 3.6-3.3 8.5-8.1 13.3-14.3 5.5-7 10.7-15.4 14.2-24.7C14.7 250.3 0 214.6 0 176 0 78.8 93.1 0 208 0s208 78.8 208 176z" class="fa-primary"/><path d="M231.5 383C348.9 372.9 448 288.3 448 176c0-5.2-.2-10.4-.6-15.5C555.1 167.1 640 243.2 640 336c0 38.6-14.7 74.3-39.6 103.4 3.5 9.4 8.7 17.7 14.2 24.7 4.8 6.2 9.7 11 13.3 14.3 1.8 1.6 3.3 2.9 4.3 3.7.5.4.9.7 1.1.8l.2.2c5.6 4.1 7.9 11.3 5.8 17.9-2.1 6.6-8.3 11.1-15.2 11.1-21.8 0-43.8-5.6-62.1-12.5-9.2-3.5-17.8-7.4-25.2-11.4C505.9 503.3 470.2 512 432 512c-95.6 0-176.2-54.6-200.5-129z" style="opacity:.4"/></svg>