<svg xmlns="http://www.w3.org/2000/svg" width="89.707" height="89.707" aria-hidden="true" class="svg-inline--fa fa-user fa-w-14" data-icon="user" data-prefix="fas"><circle cx="44.853" cy="44.853" r="44.853" style="fill:#fff;fill-opacity:1;stroke:none;stroke-width:2;stroke-miterlimit:4;stroke-dasharray:none;stroke-opacity:1"/><ellipse cx="44.821" cy="44.853" mask="url(#a)" rx="44.886" ry="44.853" style="fill:#039be5;fill-opacity:1;stroke:none;stroke-width:1.10241;stroke-miterlimit:4;stroke-dasharray:none;stroke-opacity:1"/><path d="M45.712 27.452a10.23 10.416 0 0 1-10.23 10.416 10.23 10.416 0 0 1-10.23-10.416 10.23 10.416 0 0 1 10.23-10.416 10.23 10.416 0 0 1 10.23 10.416" style="fill:none;stroke:#039be5;stroke-width:9.65377;stroke-miterlimit:4;stroke-dasharray:none;stroke-opacity:1"/><g style="font-size:39.2792px;line-height:27.2773px;font-family:Sans;letter-spacing:0;word-spacing:0;fill:none;stroke:#000;stroke-width:3.151"><path d="M58.37 74.986q-.667 0-1.1-.432-.432-.432-.432-1.1V45.842q0-.667.433-1.1.432-.432 1.1-.432h7.07q3.378 0 6.166 1.14 2.829 1.1 4.871 3.181 2.043 2.043 3.142 4.831 1.14 2.79 1.14 6.167 0 3.378-1.14 6.206-1.1 2.79-3.142 4.871-2.042 2.043-4.87 3.182-2.79 1.1-6.167 1.1zm1.532-2.75h5.539q3.613 0 6.363-1.61 2.789-1.65 4.36-4.477 1.571-2.868 1.571-6.52 0-3.654-1.571-6.482-1.571-2.867-4.36-4.478-2.75-1.61-6.363-1.61h-5.539z" aria-label="D" style="font-family:Comfortaa;-inkscape-font-specification:&quot;Comfortaa, Normal&quot;;fill:#000" transform="scale(1.00089 .99911)"/></g><defs><mask id="a" maskUnits="userSpaceOnUse"><g style="font-style:normal;font-weight:400;font-size:40px;line-height:25px;font-family:Sans;letter-spacing:0;word-spacing:0;fill:#fff;fill-opacity:1;stroke:#fff;stroke-width:.807018px;stroke-linecap:butt;stroke-linejoin:miter;stroke-opacity:1"><path d="M-32.633 56.976v19.149c0 .796.274 1.468.821 2.016.548.547 1.22.82 2.016.82.847 0 1.544-.273 2.091-.82.548-.548.822-1.22.822-2.016V56.976c0-3.086-.475-13.198 5.62-13.198 6.094 0 5.62 10.112 5.62 13.198v19.149c0 .796.273 1.468.82 2.016.548.547 1.245.82 2.092.82.796 0 1.468-.273 2.016-.82.547-.548.82-1.22.82-2.016V56.976c0-4.081.268-18.911-11.368-18.911-11.637 0-11.37 14.83-11.37 18.911z" aria-label="n" style="font-style:normal;font-variant:normal;font-weight:400;font-stretch:normal;font-size:74.6667px;font-family:Comfortaa;-inkscape-font-specification:&quot;Comfortaa, Normal&quot;;font-variant-ligatures:normal;font-variant-caps:normal;font-variant-numeric:normal;font-variant-east-asian:normal;fill:#fff;fill-opacity:1;stroke:#fff;stroke-width:.807018px;stroke-opacity:1" transform="matrix(-1.51077 0 0 1.53812 3.357 -13.2)"/></g></mask></defs></svg>