<svg xmlns="http://www.w3.org/2000/svg" width="89.707" height="89.707" aria-hidden="true" class="svg-inline--fa fa-user fa-w-14" data-icon="user" data-prefix="fas"><g transform="translate(-367.032 -444.827)"><circle cx="411.886" cy="489.681" r="44.853" style="fill:#fff;fill-opacity:1;stroke:none;stroke-width:2;stroke-miterlimit:4;stroke-dasharray:none;stroke-opacity:1"/><path d="M423.146 468.126a11.26 11.753 0 0 1-11.26 11.753 11.26 11.753 0 0 1-11.26-11.753 11.26 11.753 0 0 1 11.26-11.753 11.26 11.753 0 0 1 11.26 11.753" style="fill:none;stroke:#039be5;stroke-width:10;stroke-miterlimit:4;stroke-dasharray:none;stroke-opacity:1"/><path d="M400.225 518.91q-.714 0-1.176-.462-.461-.461-.461-1.175v-29.505q0-.714.461-1.175.462-.462 1.176-.462.713 0 1.175.462.461.461.461 1.175v29.505q0 .714-.461 1.175-.462.462-1.175.462z" aria-label="I" style="font-size:41.9705px;line-height:29.1463px;font-family:Comfortaa;-inkscape-font-specification:&quot;Comfortaa, Normal&quot;;letter-spacing:0;word-spacing:0;stroke:#000;stroke-width:3" transform="scale(.9885 1.01163)"/><path d="M415.142 518.91q-.713 0-1.175-.462-.462-.461-.462-1.175v-29.505q0-.714.462-1.175t1.175-.462h7.555q3.61 0 6.59 1.217 3.021 1.175 5.204 3.4 2.182 2.182 3.357 5.162 1.217 2.98 1.217 6.59t-1.217 6.63q-1.175 2.98-3.357 5.205-2.183 2.183-5.205 3.4-2.98 1.175-6.589 1.175zm1.637-2.938h5.918q3.861 0 6.8-1.72 2.98-1.763 4.658-4.785 1.679-3.064 1.679-6.967 0-3.904-1.68-6.926-1.678-3.063-4.658-4.784-2.938-1.721-6.799-1.721h-5.918z" aria-label="D" style="font-size:41.9705px;line-height:29.1463px;font-family:Comfortaa;-inkscape-font-specification:&quot;Comfortaa, Normal&quot;;letter-spacing:0;word-spacing:0;stroke:#000;stroke-width:3" transform="scale(.9885 1.01163)"/></g></svg>