<?xml version="1.0" encoding="UTF-8" standalone="no"?>
<svg
   height="89.706863"
   width="89.706863"
   aria-hidden="true"
   focusable="false"
   data-prefix="fas"
   data-icon="user"
   class="svg-inline--fa fa-user fa-w-14"
   role="img"
   viewBox="0 0 89.706863 89.706879"
   version="1.1"
   id="svg4"
   xmlns="http://www.w3.org/2000/svg"
   xmlns:svg="http://www.w3.org/2000/svg"
   xmlns:rdf="http://www.w3.org/1999/02/22-rdf-syntax-ns#"
   xmlns:cc="http://creativecommons.org/ns#"
   xmlns:dc="http://purl.org/dc/elements/1.1/">
  <metadata
     id="metadata10">
    <rdf:RDF>
      <cc:Work
         rdf:about="">
        <dc:format>image/svg+xml</dc:format>
        <dc:type
           rdf:resource="http://purl.org/dc/dcmitype/StillImage" />
      </cc:Work>
    </rdf:RDF>
  </metadata>
  <defs
     id="defs8">
    <rect
       x="495.81403"
       y="172.245"
       width="203.04633"
       height="236.53226"
       id="rect837" />
  </defs>
  <text
     transform="translate(-501.10215,-186.00529)"
     xml:space="preserve"
     id="text835"
     style="font-style:normal;font-weight:normal;font-size:40px;line-height:25px;font-family:Sans;letter-spacing:0px;word-spacing:0px;white-space:pre;shape-inside:url(#rect837);fill:#000000;fill-opacity:1;stroke:none;stroke-width:1px;stroke-linecap:butt;stroke-linejoin:miter;stroke-opacity:1" />
  <g
     transform="translate(-559.55848,-182.68864)"
     style="font-style:normal;font-weight:normal;font-size:40px;line-height:25px;font-family:Sans;letter-spacing:0px;word-spacing:0px;fill:#000000;fill-opacity:1;stroke:none;stroke-width:1px;stroke-linecap:butt;stroke-linejoin:miter;stroke-opacity:1"
     id="text923"
     aria-label="n" />
  <g
     aria-label="n"
     id="g956"
     style="font-style:normal;font-weight:normal;font-size:40px;line-height:25px;font-family:Sans;letter-spacing:0px;word-spacing:0px;fill:#039BE5;fill-opacity:1;stroke:none;stroke-width:1px;stroke-linecap:butt;stroke-linejoin:miter;stroke-opacity:1"
     transform="translate(39.908478,-3.2828382)" />
  <text
     xml:space="preserve"
     style="font-size:40px;line-height:27.7778px;font-family:Sans;letter-spacing:0px;word-spacing:0px;fill:none;stroke:#000000;stroke-width:1px;stroke-linecap:butt;stroke-linejoin:miter;stroke-opacity:1"
     x="142.58609"
     y="151.00153"
     id="text909"><tspan
       id="tspan907"
       x="142.58609"
       y="151.00153" /></text>
  <path
     style="display:inline;fill:#fafafa;stroke-width:1.315"
     id="path6540"
     cx="68.84848"
     cy="58.139736"
     r="57.678253"
     d="" />
  <g
     id="g25"
     transform="translate(-367.03237,-444.82742)">
    <ellipse
       ry="44.853432"
       rx="44.8535"
       cy="489.68085"
       cx="411.8858"
       id="ellipse21"
       style="fill:#ffffff;fill-opacity:1;stroke:none;stroke-width:2;stroke-miterlimit:4;stroke-dasharray:none;stroke-opacity:1" />
    <path
       d="m 423.14625,468.12608 a 11.260448,11.753175 0 0 1 -11.26044,11.75317 11.260448,11.753175 0 0 1 -11.26046,-11.75317 11.260448,11.753175 0 0 1 11.26046,-11.75319 11.260448,11.753175 0 0 1 11.26044,11.75319"
       style="fill:none;stroke:#039be5;stroke-width:10;stroke-miterlimit:4;stroke-dasharray:none;stroke-opacity:1"
       id="path22"
       mask="none" />
    <path
       style="font-size:41.9705px;line-height:29.1463px;font-family:Comfortaa;-inkscape-font-specification:'Comfortaa, Normal';letter-spacing:0px;word-spacing:0px;stroke:#000000;stroke-width:3"
       d="m 400.22459,518.91003 q -0.7135,0 -1.17518,-0.46167 -0.46167,-0.46168 -0.46167,-1.17518 v -29.50526 q 0,-0.7135 0.46167,-1.17517 0.46168,-0.46168 1.17518,-0.46168 0.71349,0 1.17517,0.46168 0.46168,0.46167 0.46168,1.17517 v 29.50526 q 0,0.7135 -0.46168,1.17518 -0.46168,0.46167 -1.17517,0.46167 z"
       id="text22"
       transform="scale(0.98850839,1.0116252)"
       aria-label="I" />
    <path
       style="font-size:41.9705px;line-height:29.1463px;font-family:Comfortaa;-inkscape-font-specification:'Comfortaa, Normal';letter-spacing:0px;word-spacing:0px;stroke:#000000;stroke-width:3"
       d="m 415.14228,518.91003 q -0.7135,0 -1.17517,-0.46167 -0.46168,-0.46168 -0.46168,-1.17518 v -29.50526 q 0,-0.7135 0.46168,-1.17517 0.46167,-0.46168 1.17517,-0.46168 h 7.55469 q 3.60946,0 6.58937,1.21715 3.02187,1.17517 5.20434,3.39961 2.18247,2.18246 3.35764,5.16237 1.21715,2.97991 1.21715,6.58937 0,3.60946 -1.21715,6.63134 -1.17517,2.9799 -3.35764,5.20434 -2.18247,2.18247 -5.20434,3.39961 -2.97991,1.17517 -6.58937,1.17517 z m 1.63685,-2.93793 h 5.91784 q 3.86129,0 6.79922,-1.72079 2.97991,-1.76276 4.65873,-4.78464 1.67882,-3.06385 1.67882,-6.9671 0,-3.90326 -1.67882,-6.92513 -1.67882,-3.06385 -4.65873,-4.78464 -2.93793,-1.72079 -6.79922,-1.72079 h -5.91784 z"
       id="text23"
       transform="scale(0.98850839,1.0116252)"
       aria-label="D" />
  </g>
</svg>
