<?xml version="1.0" encoding="UTF-8" standalone="no"?>
<svg
   width="140"
   height="130"
   viewBox="0 0 140 130"
   version="1.1"
   id="svg26"
   xmlns="http://www.w3.org/2000/svg"
   xmlns:svg="http://www.w3.org/2000/svg"
   xmlns:rdf="http://www.w3.org/1999/02/22-rdf-syntax-ns#"
   xmlns:cc="http://creativecommons.org/ns#"
   xmlns:dc="http://purl.org/dc/elements/1.1/">
  <defs
     id="defs30" />
  <!-- Generator: Sketch 56.3 (81716) - https://sketch.com -->
  <title
     id="title2">flux-logo</title>
  <desc
     id="desc4">Created with Sketch.</desc>
  <rect
     fill="#ffffff"
     x="0"
     y="0"
     width="140"
     height="130"
     id="rect6"
     style="fill:none;fill-rule:evenodd;stroke:none;stroke-width:0.999997" />
  <path
     d="m 34.3921,38.3505 c -1.819,-1.183 -1.819,-3.846 0,-5.028 l 33.59,-21.838 c 0.994,-0.646 2.275,-0.646 3.269,0 l 33.591,21.838 c 1.819,1.182 1.819,3.845 0,5.028 l -33.591,21.838 c -0.994,0.646 -2.275,0.646 -3.269,0 z"
     id="Fill-1"
     fill="#326ce5"
     style="fill-rule:evenodd;stroke:none;stroke-width:1" />
  <path
     d="m 74.9209,42.204 h 2.33 c 1.361,0 2.212,-1.473 1.531,-2.651 L 71.1479,26.33 c -0.68,-1.178 -2.381,-1.178 -3.062,0 l -7.634,13.223 c -0.68,1.178 0.17,2.651 1.531,2.651 h 2.331 c 0.976,0 1.767,0.792 1.767,1.768 v 15.093 l 1.564,1.017 c 1.199,0.78 2.745,0.78 3.944,0 l 1.564,-1.017 V 43.972 c 0,-0.976 0.791,-1.768 1.768,-1.768"
     id="Fill-3"
     fill="#c1d2f7"
     style="fill-rule:evenodd;stroke:none;stroke-width:1" />
  <path
     d="m 81.2544,71.3851 -8.102,-5.267 v 2.496 c 2.644,1.132 5.363,2.014 8.102,2.771"
     id="Fill-5"
     fill="#326ce5"
     style="fill-rule:evenodd;stroke:none;stroke-width:1" />
  <path
     d="m 73.1528,73.1019 v 3.504 c 2.677,0.817 5.386,1.488 8.067,2.149 8.756,2.159 17.026,4.197 23.676,10.848 0.338,0.337 0.655,0.681 0.969,1.026 0.682,-1.303 0.34,-3.023 -1.024,-3.909 l -13.157,-8.555 c -3.194,-1.054 -6.448,-1.86 -9.664,-2.652 -3.033,-0.748 -5.999,-1.494 -8.867,-2.411"
     id="Fill-7"
     fill="#326ce5"
     style="fill-rule:evenodd;stroke:none;stroke-width:1" />
  <path
     d="m 66.0811,70.2279 c -1.135,-0.586 -2.253,-1.215 -3.332,-1.943 l -3.009,1.956 c 2.029,1.492 4.154,2.702 6.341,3.716 z"
     id="Fill-9"
     fill="#326ce5"
     style="fill-rule:evenodd;stroke:none;stroke-width:1" />
  <path
     d="m 76.1499,81.3822 c -1.006,-0.248 -2.005,-0.495 -2.997,-0.748 v 3.444 c 0.734,0.184 1.467,0.367 2.197,0.547 8.756,2.158 17.026,4.196 23.677,10.847 0.011,0.012 0.021,0.023 0.033,0.035 l 2.844,-1.85 c -0.173,-0.181 -0.336,-0.367 -0.516,-0.546 -7.308,-7.309 -16.424,-9.556 -25.238,-11.729"
     id="Fill-11"
     fill="#326ce5"
     style="fill-rule:evenodd;stroke:none;stroke-width:1" />
  <path
     d="m 66.0811,78.5839 c -3.805,-1.303 -7.411,-2.98 -10.701,-5.509 l -2.946,1.916 c 4.189,3.455 8.853,5.551 13.647,7.105 z"
     id="Fill-13"
     fill="#326ce5"
     style="fill-rule:evenodd;stroke:none;stroke-width:1" />
  <path
     d="m 66.0811,86.1937 c -6.549,-1.716 -12.708,-3.812 -17.97,-8.393 l -2.896,1.883 c 6.18,5.694 13.532,8.074 20.866,9.959 z"
     id="Fill-15"
     fill="#326ce5"
     style="fill-rule:evenodd;stroke:none;stroke-width:1" />
  <path
     d="m 73.1528,91.4154 c 6.851,1.769 13.293,3.884 18.75,8.744 l 2.88,-1.872 c -6.376,-5.994 -14.027,-8.387 -21.63,-10.319 z"
     id="Fill-17"
     fill="#326ce5"
     style="fill-rule:evenodd;stroke:none;stroke-width:1" />
  <path
     d="m 40.9365,82.4652 -2.858,1.858 c 0.1,0.103 0.191,0.21 0.294,0.312 7.309,7.309 16.423,9.556 25.238,11.729 7.634,1.881 14.897,3.675 21.041,8.51 l 2.93,-1.905 c -6.922,-5.828 -15.168,-7.875 -23.171,-9.847 -8.668,-2.137 -16.858,-4.164 -23.474,-10.657"
     id="Fill-19"
     fill="#326ce5"
     style="fill-rule:evenodd;stroke:none;stroke-width:1" />
  <path
     d="m 34.8643,88.1439 c -0.333,-0.333 -0.646,-0.672 -0.956,-1.013 -1.303,1.305 -1.15,3.555 0.484,4.617 l 9.891,6.431 c 4.378,1.812 8.956,2.945 13.458,4.055 7.028,1.732 13.742,3.393 19.559,7.42 l 2.991,-1.946 c -6.614,-4.972 -14.288,-6.877 -21.751,-8.717 -8.755,-2.158 -17.025,-4.196 -23.676,-10.847"
     id="Fill-21"
     fill="#326ce5"
     style="fill-rule:evenodd;stroke:none;stroke-width:1" />
  <path
     d="m 67.0498,112.9794 c 0.659,0.32 1.31,0.657 1.95,1.019 0.763,0.161 1.574,0.028 2.252,-0.413 l 1.66,-1.079 c -5.333,-3.567 -11.262,-5.374 -17.171,-6.879 z"
     id="Fill-23"
     fill="#326ce5"
     style="fill-rule:evenodd;stroke:none;stroke-width:1" />
  <metadata
     id="metadata347">
    <rdf:RDF>
      <cc:Work
         rdf:about="">
        <dc:title>flux-logo</dc:title>
      </cc:Work>
    </rdf:RDF>
  </metadata>
</svg>
