<svg xmlns="http://www.w3.org/2000/svg" width="140" height="130"><path fill="#fff" d="M0 0h140v130H0z" style="fill:none;fill-rule:evenodd;stroke:none;stroke-width:.999997"/><path fill="#326ce5" d="M34.392 38.35c-1.819-1.183-1.819-3.846 0-5.028l33.59-21.838a3 3 0 0 1 3.27 0l33.59 21.838c1.82 1.182 1.82 3.845 0 5.028l-33.59 21.838a3 3 0 0 1-3.27 0z" style="fill-rule:evenodd;stroke:none;stroke-width:1"/><path fill="#c1d2f7" d="M74.92 42.204h2.33c1.362 0 2.213-1.473 1.532-2.651L71.148 26.33c-.68-1.178-2.381-1.178-3.062 0l-7.634 13.223c-.68 1.178.17 2.651 1.53 2.651h2.332c.976 0 1.767.792 1.767 1.768v15.093l1.564 1.017c1.199.78 2.745.78 3.944 0l1.564-1.017V43.972c0-.976.79-1.768 1.768-1.768" style="fill-rule:evenodd;stroke:none;stroke-width:1"/><path fill="#326ce5" d="m81.254 71.385-8.102-5.267v2.496c2.644 1.132 5.363 2.014 8.102 2.771m-8.101 1.717v3.504c2.677.817 5.386 1.488 8.067 2.149 8.756 2.159 17.026 4.197 23.676 10.848.338.337.655.68.969 1.026.682-1.303.34-3.023-1.024-3.91l-13.157-8.554c-3.194-1.054-6.448-1.86-9.664-2.652-3.033-.748-6-1.494-8.867-2.411m-7.072-2.874c-1.135-.586-2.253-1.215-3.332-1.943L59.74 70.24c2.03 1.492 4.154 2.702 6.341 3.716zM76.15 81.382a385.918 385.918 0 0 1-2.997-.748v3.444c.734.184 1.467.367 2.197.547 8.756 2.158 17.026 4.196 23.677 10.847.01.012.02.023.033.035l2.844-1.85c-.173-.18-.336-.367-.516-.546-7.308-7.309-16.424-9.556-25.238-11.729m-10.069-2.798c-3.805-1.303-7.41-2.98-10.7-5.51l-2.947 1.917c4.19 3.455 8.853 5.55 13.647 7.105zm0 7.61c-6.549-1.716-12.708-3.812-17.97-8.393l-2.896 1.883c6.18 5.694 13.532 8.074 20.866 9.959zm7.072 5.221c6.85 1.77 13.293 3.884 18.75 8.744l2.88-1.872c-6.376-5.994-14.027-8.387-21.63-10.319zm-32.216-8.95-2.858 1.858c.1.103.19.21.294.312 7.309 7.31 16.423 9.556 25.238 11.73 7.634 1.88 14.897 3.674 21.04 8.51l2.93-1.906c-6.921-5.828-15.167-7.875-23.17-9.847-8.668-2.137-16.858-4.164-23.474-10.657m-6.073 5.679a29.11 29.11 0 0 1-.956-1.013c-1.303 1.305-1.15 3.555.484 4.617l9.891 6.43c4.378 1.813 8.956 2.946 13.458 4.056 7.028 1.732 13.742 3.393 19.56 7.42l2.99-1.946c-6.614-4.972-14.288-6.877-21.75-8.717-8.756-2.158-17.026-4.196-23.677-10.847M67.05 112.98c.659.32 1.31.656 1.95 1.018a2.99 2.99 0 0 0 2.252-.413l1.66-1.079c-5.333-3.567-11.262-5.374-17.171-6.879z" style="fill-rule:evenodd;stroke:none;stroke-width:1"/></svg>