<svg xmlns="http://www.w3.org/2000/svg" viewBox="0 0 640 512"><!--! Font Awesome Pro 6.4.2 by @fontawesome - https://fontawesome.com License - https://fontawesome.com/license (Commercial License) Copyright 2023 Fonticons, Inc.--><path d="M320 32c-8.1 0-16.1 1.4-23.7 4.1L15.8 137.4C6.3 140.9 0 149.9 0 160s6.3 19.1 15.8 22.6l77.4 27.9c16.8-17.8 37.8-31.9 61.7-40.9l159.4-59.8c8.3-3.1 17.5 1.1 20.6 9.4s-1.1 17.5-9.4 20.6l-159.3 59.8c-14.6 5.5-27.8 13.4-39.3 23.1l169.5 61.2c7.6 2.7 15.6 4.1 23.7 4.1s16.1-1.4 23.7-4.1l280.4-101.3c9.5-3.4 15.8-12.5 15.8-22.6s-6.3-19.1-15.8-22.6L343.7 36.1c-7.6-2.7-15.6-4.1-23.7-4.1zM128 408c0 35.3 86 72 192 72s192-36.7 192-72l-15.3-145.4L354.5 314c-11.1 4-22.8 6-34.5 6s-23.5-2-34.5-6l-142.2-51.4L128 408z" class="fa-primary"/><path d="M325.6 139.8c8.3-3.1 12.5-12.3 9.4-20.6s-12.3-12.5-20.6-9.4l-159.5 59.8C92.4 193.1 50.4 251.8 48.1 318.2c-.1.6-.1 1.2-.1 1.8 0 28.4-10.8 57.8-22.3 80.8-6.5 13-13.9 25.8-22.5 37.6-3.2 4.3-4.1 9.9-2.3 15s6 8.9 11.2 10.2l64 16c4.2 1.1 8.7.3 12.4-2s6.3-6.1 7.1-10.4c8.6-42.8 4.3-81.2-2.1-108.7-3.2-14-7.5-28.3-13.4-41.5 2.8-52.5 36.4-98.7 86-117.3l159.4-59.8z" style="opacity:.4"/></svg>