<svg xmlns="http://www.w3.org/2000/svg" viewBox="0 0 640 512"><!--! Font Awesome Pro 6.4.2 by @fontawesome - https://fontawesome.com License - https://fontawesome.com/license (Commercial License) Copyright 2023 Fonticons, Inc.--><path d="m192 64 32-16 96-48 96 48 32 16v48h-32v48h32v64h-20.4l40.7 224H512v64H352v-64c0-17.7-14.3-32-32-32s-32 14.3-32 32v64H128v-64h43.6l40.7-224H192v-64h32v-48h-32V64zm160 48V87.6l-32-16-32 16V160h64v-48zM145.5 49.9l22.1 9.5-18.9 44.1-22.1-9.5-112-48L33.5 1.9l112 48zm0 156.1-112 48-18.9-44.1 112-48 22.1-9.5 18.9 44.1-22.1 9.5zM606.6 1.9 625.5 46l-112 48-22.1 9.5-18.9-44.1 22.1-9.5 112-48zM472.5 196.6l18.9-44.1 22.1 9.5 112 48-18.9 44.1-112-48-22.1-9.5z"/></svg>