<svg xmlns="http://www.w3.org/2000/svg" viewBox="0 0 384 512"><!--! Font Awesome Pro 6.4.2 by @fontawesome - https://fontawesome.com License - https://fontawesome.com/license (Commercial License) Copyright 2023 Fonticons, Inc.--><path d="M192 512c44.2 0 80-35.8 80-80v-48H112v48c0 44.2 35.8 80 80 80z" class="fa-primary"/><path d="M321.2 297.8c-19.8 27.1-39.7 54.4-49.2 86.2H112c-9.6-31.9-29.5-59.1-49.2-86.2-5.2-7.1-10.4-14.2-15.4-21.4C27.6 247.9 16 213.3 16 176 16 78.8 94.8 0 192 0s176 78.8 176 176c0 37.3-11.6 71.9-31.4 100.3-5 7.2-10.2 14.3-15.4 21.4zM112 176c0-44.2 35.8-80 80-80 8.8 0 16-7.2 16-16s-7.2-16-16-16c-61.9 0-112 50.1-112 112 0 8.8 7.2 16 16 16s16-7.2 16-16z" style="opacity:.4"/></svg>