<svg xmlns="http://www.w3.org/2000/svg" xml:space="preserve" id="Ebene_1" x="0" y="0" version="1.1" viewBox="0 0 141.7 141.7"><style>.st1{fill:#fff}</style><path d="M112.6 20V0H0v121.7h29.1v20h112.6V20z" style="fill:#006eb6"/><path d="M5.3 63.7h6.6l4.3 6.5c.3.4.4.7.4 1.2 0-.5.1-.9.4-1.2l4.3-6.5H28v19.4h-7v-9.9c-.1.6-.2 1-.4 1.3l-4 5.2-4-5.2c-.2-.3-.3-.7-.4-1.3v9.9H5.3z" class="st1"/><path d="M32.7 61.2h7.2v5h-7.2zm8.6 0h7.2v5h-7.2z" style="fill:#fff;fill-rule:evenodd;clip-rule:evenodd"/><path d="M50.8 74.6c0 5.8-3.6 8.9-10.4 8.9-6.5 0-10-3.2-10-8.9v-6.9h7.2v7c0 1.7 1.3 2.9 3.1 2.9s3-1.2 3-2.9v-7h7.2v6.9zm2.4-10.9h17.6v5.1h-5.3v14.3h-7.2V68.8h-5.2v-5.1zm20 0h11c3.6 0 6 2.3 6 5.5 0 2-.9 3.5-2.4 4.3.6.3.9.6 1.4 1.2.8 1.1 1.8 2.8 2.7 5.3l1.3 3.1h-7.1l-.5-1.5c-.6-1.8-1.6-3.8-2.3-4.8-.5-.8-1.3-1.2-2.3-1.2h-.6v7.5h-7.2zm7.2 8.4h.9c1.2 0 1.9-.8 1.9-2.1 0-1.5-.6-2.3-1.9-2.3h-.9zm22.6-8.8c5.9 0 9.9 4 9.9 10s-4 10-9.9 10c-6 0-10-4-10-10 0-5.9 4-10 10-10m-3 10.1c0 2.5 1.2 4.3 3 4.3s3-1.8 3-4.2c0-2.6-1.2-4.3-3-4.3-1.8-.1-3 1.6-3 4.2m15.3-9.7h6.2l7.4 8.8c.3.4.5.7.5 1.2v-10h6.9v19.4H130l-7.4-8.6c-.4-.4-.4-.7-.4-1.2v9.8h-7V63.7z" class="st1"/></svg>