<svg xmlns="http://www.w3.org/2000/svg" xml:space="preserve" id="nh_Logo" width="180.375" height="47.475" x="0" y="0" version="1.1"><style id="style1" type="text/css">.st1{fill:#3b3b3a}.st2{fill:#a9eb00}.st4{fill:#575756}.st5{fill:#858685}</style><g id="g42" transform="translate(-20.425 -26.625)"><path id="path1" d="M27.7 69.1c-9.7-9.7-9.7-25.5 0-35.2s25.5-9.7 35.2 0l-3.3 3.3c-7.9-7.9-20.7-7.9-28.6 0s-7.9 20.7 0 28.6z" class="st1"/><path id="path2" d="M45.3 74.1c-12.5 0-22.6-10.1-22.6-22.6s10.1-22.6 22.6-22.6v4.7c-9.9 0-17.9 8-17.9 17.9s8 17.9 17.9 17.9z" class="st2"/><path id="path3" d="m59.7 65.8-3.3-3.3c3-2.9 4.6-6.8 4.6-11s-1.6-8.1-4.6-11-6.9-4.6-11-4.6c-4.2 0-8.1 1.6-11 4.6L31 37.2c3.8-3.8 8.9-5.9 14.3-5.9s10.5 2.1 14.3 5.9 5.9 8.9 5.9 14.3c.1 5.4-2 10.4-5.8 14.3" style="fill:#b1b1b2"/><path id="path4" d="M45.4 69.4c-9.9 0-18-8-18-17.9H32c0 7.3 6 13.3 13.4 13.3s13.4-6 13.4-13.3h4.6c0 9.9-8.1 17.9-18 17.9" class="st1"/><path id="path5" d="M45.1 67.2c-4.2 0-8.2-1.6-11.2-4.6l3.3-3.3c2.1 2.1 4.9 3.3 7.9 3.3s5.8-1.2 7.9-3.3 3.3-4.9 3.3-7.9-1.2-5.8-3.3-7.9l3.3-3.3c3 3 4.7 6.9 4.7 11.1s-1.7 8.2-4.7 11.1c-3 3.2-7 4.8-11.2 4.8" class="st2"/><g id="g9"><path id="path6" d="M86.1 43.8v8.6h-1.8v-8.6c0-2.4-1.2-3.1-2.7-3.1-2 0-3.9.9-3.9 4v7.7H76V39.3h1.6l.2 1.5c1.5-1.7 3.4-1.7 4.2-1.7 2.2 0 4.1 1.1 4.1 4.7" class="st4"/><path id="path7" d="M99 51.2c-.9.9-2.2 1.4-4 1.4-4 0-5.8-2.1-5.8-7.1 0-5.3 3-6.5 5.2-6.5 2.6 0 5.3 1.2 5.3 6.4 0 .3 0 .7-.1.9H91c.1 3 .7 4.7 4 4.7 1.3 0 2.1-.4 2.8-1.1zm-7.9-6.3h6.8c-.2-3.9-2.1-4.2-3.4-4.2-1.1 0-3.2.2-3.4 4.2" class="st4"/><path id="path8" d="M108.1 50.9v1.6c-3.8.4-4.8-1.3-4.8-3.1v-8.6h-1.8v-1.5h1.8V36h1.8v3.3h3v1.5h-3v8.4c-.1 1.9 1.5 1.8 3 1.7" class="st4"/><path id="path9" d="M110.3 39.3h9.3v1.5l-7.3 10.1h7.3v1.6h-9.4v-1.6l7.2-10h-7.1z" class="st4"/></g><g id="g16"><path id="path10" d="M128.7 39.1c2.4 0 4 1.1 4 4.7v8.6h-1v-8.6c0-2.4-.8-3.7-3.2-3.7-2.7 0-4.4 1.5-4.4 4.7v7.7h-1V34h1v7.3c1.3-2.2 3.7-2.2 4.6-2.2" class="st4"/><path id="path11" d="M145.7 52.4h-1l-.2-2c-1.4 1.8-2.8 2.2-4.4 2.2-3 0-3.9-2.2-3.9-4 0-1.7.9-3.7 4-3.7h4.3c0-2.9-.3-4.9-3.6-4.9-1.1 0-2.1.1-3.2 1l-.7-.7c1.2-1.2 3-1.3 3.9-1.3 1.5 0 4.7.4 4.7 4.9v6.6zm-1.2-6.5h-4.1c-1.5 0-3.2.4-3.2 2.7 0 2.1 1.3 3.1 3.2 3.1 1.2 0 2.4-.6 3.2-1.5.9-1 .9-2.1.9-3.2z" class="st4"/><path id="path12" d="M149.3 47.9v-8.6h1v8.6c0 2.7 1.2 3.7 2.9 3.7 1.8 0 4.1-1.5 4.1-4.7v-7.7h1V50l.2 2.4h-1l-.2-2c-1.5 2.3-3.7 2.2-4.4 2.2-2.1.1-3.6-1.4-3.6-4.7" class="st4"/><path id="path13" d="M168.3 51.6v.9c-3.8.4-4.1-1.5-4.1-3.1v-9.1h-1.9v-.9h1.9V36h1v3.3h3.1v.9h-3.1v9c-.1 2.3.9 2.4 3.1 2.4" class="st4"/><path id="path14" d="M171.8 50.7h1.5v1.7h-1.5z" class="st4"/><path id="path15" d="M185.7 41.2V34h1v16.5l.2 1.9h-1l-.2-1.9c-1.4 2.2-3.6 2.2-4.1 2.2h-.1c-1.9 0-4.7-1-4.7-6.5 0-6.8 3.5-7.1 4.7-7.1.3 0 2.7 0 4.2 2.1m-4.1 10.5c2 0 3.8-1 4.1-4.1.1-1.1.1-1.7.1-2.8-.2-3.4-1.9-4.7-4.2-4.7-1.7 0-3.6 1.2-3.6 6-.1 4.5 1.8 5.6 3.6 5.6" class="st4"/><path id="path16" d="M199.9 51.2c-.9.9-2.1 1.4-3.7 1.4-4 0-5.5-2.1-5.5-7.1 0-5.1 2.7-6.5 5-6.5 2.6 0 5 1.3 5 6.3 0 .3 0 .5-.1.6h-9c.1 4 1.4 5.6 4.6 5.6q1.8 0 3-1.2zm-8.3-6h8.1c-.2-5-2.8-5.1-4-5.1-1 0-3.8.2-4.1 5.1" class="st4"/></g><g id="g41"><path id="path17" d="M83 62v3.4h-.7V62c0-1-.5-1.2-1-1.2-.4 0-1.4.1-1.4 1.5v3.1h-.7V62c0-1-.5-1.2-1-1.2-.4 0-1.4.1-1.4 1.6v3.1h-.7v-5.2h.6l.1.6c.5-.6 1.4-.7 1.5-.7.6 0 1.2.2 1.4.8.6-.7 1.3-.8 1.6-.8 1-.1 1.7.4 1.7 1.8" class="st5"/><path id="path18" d="M84.4 63.7v-3.4h.7v3.4c0 1 .5 1.2 1.1 1.2.7 0 1.5-.3 1.5-1.6v-3.1h.7v4.5l.1.7h-.7l-.1-.6c-.6.7-1.3.7-1.6.7-.9 0-1.7-.4-1.7-1.8" class="st5"/><path id="path19" d="M91.4 64.9h.1v.6c-1.2.1-1.4-.5-1.4-1.3v-6.1h.7v6.1c.1.6.3.7.6.7" class="st5"/><path id="path20" d="M94.9 64.9v.6c-1.5.1-1.9-.5-1.9-1.3v-3.4h-.7v-.6h.7v-1.3h.7v1.3h1.2v.6h-1.2v3.3c0 .8.6.8 1.2.8" class="st5"/><path id="path21" d="M96.9 58.6v.8h-.8v-.8zm-.8 1.6h.7v5.2h-.7z" class="st5"/><path id="path22" d="M105.4 62v3.4h-.7V62c0-1-.5-1.2-1-1.2-.4 0-1.4.1-1.4 1.5v3.1h-.7V62c0-1-.5-1.2-1-1.2-.4 0-1.4.1-1.4 1.6v3.1h-.7v-5.2h.6l.1.6c.5-.6 1.4-.7 1.5-.7.6 0 1.2.2 1.4.8.6-.7 1.3-.8 1.6-.8.9-.1 1.7.4 1.7 1.8" class="st5"/><path id="path23" d="M110.5 65c-.4.3-.9.6-1.6.6-1.6 0-2.3-.9-2.3-2.8 0-2.1 1.2-2.6 2.1-2.6 1 0 2.1.5 2.1 2.5v.3h-3.4c.1 1.2.3 1.9 1.6 1.9.5 0 .8-.2 1.1-.4zm-3.1-2.6h2.7c-.1-1.6-.8-1.7-1.3-1.7-.5.1-1.4.2-1.4 1.7" class="st5"/><path id="path24" d="M111.7 62.8c0-2.5 1.5-2.7 1.9-2.7.2 0 .9 0 1.4.6v-2.6h.7v6.6l.1.8h-.7l-.1-.6c-.6.7-1.3.7-1.4.7-.7 0-1.9-.4-1.9-2.6zm2-2c-.5 0-1.2.2-1.2 2.1v.1c0 1.7.7 1.9 1.2 1.9.6 0 1.3-.2 1.4-1.4v-1.1c0-1.2-.6-1.6-1.4-1.6" class="st5"/><path id="path25" d="M118.3 58.6v.8h-.8v-.8zm-.8 1.6h.7v5.2h-.7z" class="st5"/><path id="path26" d="M123.5 65.5h-.7l-.1-.6c-.4.5-.9.7-1.6.7-1.2 0-1.6-.8-1.6-1.6 0-.7.3-1.6 1.7-1.6h1.5c0-.7 0-1.6-1.2-1.6-.5 0-.9.1-1.2.4l-.5-.5c.5-.5 1.1-.5 1.7-.5s2 .1 2 2v2.6zm-.8-2.5h-1.4c-.6 0-1 .3-1 1 0 .5.3 1 1 1 .4 0 .7-.1 1-.4s.4-.8.4-1.2z" class="st5"/><path id="path27" d="M126.3 64.9h.1v.6c-1.2.1-1.4-.5-1.4-1.3v-6.1h.7v6.1c.1.6.3.7.6.7" class="st5"/><path id="path28" d="M131.2 65c-.4.3-.9.6-1.6.6-1.6 0-2.3-.9-2.3-2.8 0-2.1 1.2-2.6 2.1-2.6 1 0 2.1.5 2.1 2.5v.3h-3.4c.1 1.2.3 1.9 1.6 1.9.5 0 .8-.2 1.1-.4zm-3.1-2.6h2.7c-.1-1.6-.8-1.7-1.3-1.7-.5.1-1.3.2-1.4 1.7" class="st5"/><path id="path29" d="m137.3 62.8-.9 1v1.6h-.7v-7.3h.7v4.7l2.2-2.6h.9l-1.8 2 1.8 3.2h-.8z" class="st5"/><path id="path30" d="M142.3 65.5c-1.5 0-2.1-.8-2.1-2.8 0-2.1 1.1-2.6 2.1-2.6s2.2.5 2.2 2.6c-.1 2-.7 2.8-2.2 2.8m1.4-2.8c0-1.9-.8-2-1.4-2-.5 0-1.4.1-1.4 2 0 1.4.2 2.1 1.4 2.1 1.2.1 1.4-.7 1.4-2.1" class="st5"/><path id="path31" d="M152.6 62v3.4h-.7V62c0-1-.5-1.2-1-1.2-.4 0-1.4.1-1.4 1.5v3.1h-.7V62c0-1-.5-1.2-1-1.2-.4 0-1.4.1-1.4 1.6v3.1h-.7v-5.2h.6l.1.6c.5-.6 1.4-.7 1.5-.7.6 0 1.2.2 1.4.8.6-.7 1.3-.8 1.6-.8 1-.1 1.7.4 1.7 1.8" class="st5"/><path id="path32" d="M161 62v3.4h-.7V62c0-1-.5-1.2-1-1.2-.4 0-1.4.1-1.4 1.5v3.1h-.7V62c0-1-.5-1.2-1-1.2-.4 0-1.4.1-1.4 1.6v3.1h-.7v-5.2h.6l.1.6c.5-.6 1.4-.7 1.5-.7.6 0 1.2.2 1.4.8.6-.7 1.3-.8 1.6-.8 1-.1 1.7.4 1.7 1.8" class="st5"/><path id="path33" d="M162.5 63.7v-3.4h.7v3.4c0 1 .5 1.2 1.1 1.2.7 0 1.5-.3 1.5-1.6v-3.1h.7v4.5l.1.7h-.7l-.1-.6c-.6.7-1.3.7-1.6.7-1 0-1.7-.4-1.7-1.8" class="st5"/><path id="path34" d="M172.1 62v3.4h-.7V62c0-1-.5-1.2-1.1-1.2-.8 0-1.5.3-1.5 1.6v3.1h-.7v-5.2h.6l.1.6c.6-.7 1.4-.7 1.7-.7.9-.1 1.6.4 1.6 1.8" class="st5"/><path id="path35" d="M174.5 58.6v.8h-.8v-.8zm-.8 1.6h.7v5.2h-.7z" class="st5"/><path id="path36" d="m177.7 62.8-.9 1v1.6h-.7v-7.3h.7v4.7l2.2-2.6h.9l-1.8 2 1.8 3.2h-.8z" class="st5"/><path id="path37" d="M184.4 65.5h-.7l-.1-.6c-.4.5-.9.7-1.6.7-1.2 0-1.6-.8-1.6-1.6 0-.7.3-1.6 1.7-1.6h1.5c0-.7 0-1.6-1.2-1.6-.5 0-.9.1-1.2.4l-.5-.5c.5-.5 1.1-.5 1.7-.5s2 .1 2 2v2.6zm-.8-2.5h-1.4c-.6 0-1 .3-1 1 0 .5.3 1 1 1 .4 0 .7-.1 1-.4s.4-.8.4-1.2z" class="st5"/><path id="path38" d="M187.8 64.9v.6c-1.5.1-1.9-.5-1.9-1.2v-3.4h-.7v-.6h.7V59h.7v1.3h1.2v.6h-1.2v3.3c0 .7.6.7 1.2.7" class="st5"/><path id="path39" d="M189.8 58.6v.8h-.8v-.8zm-.8 1.6h.7v5.2h-.7Z" class="st5"/><path id="path40" d="M193.2 65.5c-1.5 0-2.1-.8-2.1-2.8 0-2.1 1.1-2.6 2.1-2.6s2.2.5 2.2 2.6c0 2-.7 2.8-2.2 2.8m1.4-2.8c0-1.9-.8-2-1.4-2-.5 0-1.4.1-1.4 2 0 1.4.2 2.1 1.4 2.1 1.2.1 1.4-.7 1.4-2.1" class="st5"/><path id="path41" d="M200.8 62v3.4h-.8V62c0-1-.5-1.2-1.1-1.2-.8 0-1.5.3-1.5 1.6v3.1h-.7v-5.2h.6l.1.6c.6-.7 1.4-.7 1.7-.7.9-.1 1.7.4 1.7 1.8" class="st5"/></g></g></svg>