<svg xmlns="http://www.w3.org/2000/svg" viewBox="0 0 576 512"><!--! Font Awesome Pro 6.4.2 by @fontawesome - https://fontawesome.com License - https://fontawesome.com/license (Commercial License) Copyright 2023 Fonticons, Inc.--><path d="M224 0c-17.7 0-32 14.3-32 32v32h-48c-26.5 0-48 21.5-48 48v128l-44.4 14.8c-23.1 7.7-29.5 37.5-11.5 53.9l101 92.6c16.2 9.4 34.7 15.1 50.9 15.1 21.1 0 42-8.5 59.2-20.3 22.1-15.5 51.6-15.5 73.7 0 18.4 12.7 39.6 20.3 59.2 20.3 16.2 0 34.7-5.7 50.9-15.1l101-92.6c18-16.5 11.6-46.2-11.5-53.9L480 240V112c0-26.5-21.5-48-48-48h-48V32c0-17.7-14.3-32-32-32H224zm43.8 182.7-107.8 36V128h256v90.7l-107.8-36c-13.1-4.4-27.3-4.4-40.5 0z" class="fa-primary"/><path d="M269.5 421.9c11.1-7.9 25.9-7.9 37 0 22.5 15.5 50 26.1 77.5 26.1 26.9 0 55.3-10.8 77.4-26.1 11.9-8.5 28.1-7.8 39.2 1.7 14.4 11.9 32.5 21 50.6 25.2 17.2 4 27.9 21.2 23.9 38.4s-21.2 27.9-38.4 23.9c-24.5-5.7-44.9-16.5-58.2-25-29 15.6-61.5 25.9-94.5 25.9-31.9 0-60.6-9.9-80.4-18.9-5.8-2.7-11.1-5.3-15.6-7.7-4.5 2.4-9.7 5.1-15.6 7.7-19.8 9-48.5 18.9-80.4 18.9-33 0-65.5-10.3-94.5-25.8-13.4 8.4-33.7 19.3-58.2 25-17.2 4-34.4-6.7-38.4-23.9s6.7-34.4 23.9-38.4c18.1-4.2 36.2-13.3 50.6-25.2 11.1-9.4 27.3-10.1 39.2-1.7 22.1 15.2 50.5 26 77.4 26 27.5 0 55-10.6 77.5-26.1z" style="opacity:.4"/></svg>