<svg xmlns="http://www.w3.org/2000/svg" width="775" height="527.43"><path fill="#fff" d="M761.8 0H13.2A13.225 13.225 0 0 0 0 13.223V514.23a13.22 13.22 0 0 0 13.2 13.2h748.6a13.22 13.22 0 0 0 13.2-13.2V13.224A13.224 13.224 0 0 0 761.807.001Z"/><path fill="#d6d6e3" d="M563.49 209.596h-.005c-.84 0-1.518-.156-1.515-.348l.76-53.083c0-.191.683-.345 1.521-.345h.005c.84 0 1.518.156 1.515.347l-.76 53.085c-.003.189-.683.344-1.521.344" style="stroke-width:.821031"/><path fill="#d6d6e3" d="M368.848 365.491h-.005c-.84 0-1.518-.217-1.515-.482l.76-71.533c0-.265.683-.479 1.521-.479h.005c.84 0 1.518.217 1.515.482l-.76 71.533c-.003.265-.683.479-1.521.479" style="stroke-width:.849753"/><path fill="#d6d6e3" d="M224.388 252.173h-.005c-.84 0-1.518-.2-1.516-.442l.76-66.448c0-.242.683-.438 1.521-.439h.005c.84 0 1.518.2 1.515.442l-.76 66.448c-.002.243-.682.439-1.52.439"/><path fill="#3f3d56" d="M161.6 313.302c2.928-15.81 20.9-23.1 35.469-21.863 20.815 1.77 38.186 15.474 57.559 21.934 9.362 3.122 19.434 4.836 29.244 3.039a44.54 44.54 0 0 0 20.778-10.49c11.264-9.627 18.879-22.756 30.151-32.373a37.54 37.54 0 0 1 21.732-9.489c9.946-.661 19.686 2.71 28.4 7.228 17.319 8.975 31.5 23.256 49.944 30.183a51.1 51.1 0 0 0 26.616 2.75 69.3 69.3 0 0 0 25.019-10.384c15.883-10.034 28.972-23.958 45.672-32.758 8.212-4.327 17.335-7.637 26.716-7.7a35.4 35.4 0 0 1 24.35 9.749c12.648 11.5 22.62 29.646 41.937 29.965a20.96 20.96 0 0 0 11.419-3.134c2.492-1.541.2-5.489-2.3-3.939-7.874 4.869-17.357 1.8-24.533-2.926-7.643-5.029-13.069-12.716-19.307-19.265-6.2-6.506-13.427-11.986-22.341-14.016a48.6 48.6 0 0 0-26.618 2.224c-18.247 6.358-32.06 19.444-47.2 30.83-14.925 11.221-32.351 20.929-51.608 16.256-19.174-4.653-33.72-19.173-50.3-28.919-16.031-9.421-35.681-15.438-52.943-5.524-13.044 7.491-21.291 20.72-31.309 31.5-4.943 5.318-10.456 10.26-17.133 13.281-9.278 4.2-19.764 3.708-29.429 1.22-20.16-5.19-37.164-18.764-57.693-22.825-15.238-3.014-33.273.784-42.574 14.254a25.9 25.9 0 0 0-4.111 9.985c-.532 2.87 3.864 4.1 4.4 1.213z"/><circle cx="225.148" cy="303.495" r="19.768" fill="#039be5"/><circle cx="367.328" cy="261.677" r="19.768" fill="#039be5"/><circle cx="561.969" cy="247.991" r="19.768" fill="#039be5"/><path fill="#e6e6e6" d="M245.996 164.483h-43.36a9.79 9.79 0 0 1-7.6-3.594 10.02 10.02 0 0 1-2.067-8.349 133.3 133.3 0 0 0 0-52.521 10.02 10.02 0 0 1 2.067-8.35 9.79 9.79 0 0 1 7.419-3.591c13.182-6.456 27.881-6.456 43.693 0a9.9 9.9 0 0 1 9.647 8.513 220.5 220.5 0 0 1 0 59.376 9.9 9.9 0 0 1-9.799 8.516"/><path fill="#039be5" d="M588.421 144.508h-43.36a9.906 9.906 0 0 1-9.8-8.515 220.5 220.5 0 0 1 0-59.377 9.906 9.906 0 0 1 9.634-8.514c13.643-6.115 28.334-6.114 43.676 0a9.8 9.8 0 0 1 7.45 3.593 10.02 10.02 0 0 1 2.067 8.349 133.3 133.3 0 0 0 0 52.521 10.02 10.02 0 0 1-2.067 8.349 9.79 9.79 0 0 1-7.6 3.594"/><path fill="#fff" d="M583.88 90.743h-36.5a2.281 2.281 0 0 1 0-4.562h36.5a2.281 2.281 0 1 1 0 4.562m0 18.248h-36.5a2.281 2.281 0 0 1 0-4.562h36.5a2.281 2.281 0 0 1 0 4.562m0 18.248h-36.5a2.281 2.281 0 0 1 0-4.562h36.5a2.281 2.281 0 1 1 0 4.562m-337.22-19.515h-36.5a2.281 2.281 0 1 1 0-4.562h36.5a2.281 2.281 0 1 1 0 4.562m0 18.247h-36.5a2.281 2.281 0 1 1 0-4.562h36.5a2.281 2.281 0 0 1 0 4.562m0 18.248h-36.5a2.281 2.281 0 1 1 0-4.562h36.5a2.281 2.281 0 0 1 0 4.562"/><path fill="#039be5" d="M392.398 466.354h-43.36a9.906 9.906 0 0 1-9.8-8.515 220.5 220.5 0 0 1 0-59.376 9.906 9.906 0 0 1 9.6-8.515c14.119-7.582 28.834-7.584 43.742 0a9.79 9.79 0 0 1 7.413 3.592 10.02 10.02 0 0 1 2.067 8.349 133.3 133.3 0 0 0 0 52.523 10.02 10.02 0 0 1-2.067 8.349 9.79 9.79 0 0 1-7.595 3.593"/><path fill="#fff" d="M389.599 408.448h-36.5a2.281 2.281 0 1 1 0-4.562h36.5a2.281 2.281 0 1 1 0 4.562m0 18.248h-36.5a2.281 2.281 0 0 1 0-4.562h36.5a2.281 2.281 0 0 1 0 4.562m0 18.247h-36.5a2.281 2.281 0 1 1 0-4.562h36.5a2.281 2.281 0 1 1 0 4.562"/><path fill="#3f3d56" d="m693.326 321.288 12.1 5.734c-4.965-6.929-9.243-17.75-11.533-26.36-3.878 8.021-10.129 17.835-16.317 23.7l12.793-3.291c-7.883 38.635-37.533 66.371-71.487 66.371v2.942c35.47-.004 66.395-28.902 74.444-69.096"/><path fill="#039be5" d="M655.614 273.42h76.481c3.244 0 5.883 4.367 5.883 9.734s-2.639 9.734-5.883 9.734h-76.481c-3.244 0-5.883-4.367-5.883-9.734s2.639-9.734 5.883-9.734"/><path fill="#fff" d="m624.338 425.546-34.475 30.652a10.777 10.777 0 0 1-15.2-.891c-14.328-11.379-26.081-24.2-34.561-38.867a10.777 10.777 0 0 1 .891-15.2l34.471-30.652a10.777 10.777 0 0 1 15.2.891l34.561 38.867a10.777 10.777 0 0 1-.891 15.2z"/><path fill="#3f3d56" d="m624.338 425.546-34.475 30.652a10.777 10.777 0 0 1-15.2-.891c-16.346-10.008-28.593-22.519-34.561-38.867a10.777 10.777 0 0 1 .891-15.2l34.471-30.652a10.777 10.777 0 0 1 15.2.891l34.561 38.867a10.777 10.777 0 0 1-.891 15.2zm-82.36-23.2a9.3 9.3 0 0 0-.77 13.121c7.645 15.508 19.432 28.288 34.561 38.867a9.3 9.3 0 0 0 13.121.769l34.473-30.656a9.3 9.3 0 0 0 .769-13.121l-34.561-38.867a9.3 9.3 0 0 0-13.121-.77z"/><path fill="#039be5" d="m593.001 397.321-28.4 25.256a2.924 2.924 0 1 1-3.885-4.37l28.4-25.256a2.924 2.924 0 1 1 3.885 4.37m10.754 12.088-28.4 25.256a2.924 2.924 0 1 1-3.886-4.37l28.4-25.256a2.924 2.924 0 1 1 3.885 4.37zm-21.505-24.18-28.4 25.256a2.924 2.924 0 1 1-3.885-4.37l28.4-25.256a2.924 2.924 0 1 1 3.885 4.37"/><path fill="#3f3d56" d="m117.396 280.402 6.905-4.454c-2.832 5.382-5.273 13.788-6.579 20.477-2.212-6.231-5.778-13.855-9.308-18.409l7.3 2.557c-4.5-30.012-21.411-51.558-40.78-51.558v-2.285c20.23 0 37.871 22.448 42.462 53.672"/><path fill="#039be5" d="M56.486 334.667h76.481c3.244 0 5.883-4.227 5.883-9.422s-2.639-9.422-5.883-9.422H56.486c-3.244 0-5.883 4.227-5.883 9.422s2.637 9.422 5.883 9.422"/><path fill="#fff" d="M51.411 215.475h46.128a10.777 10.777 0 0 0 10.765-10.765V152.7a10.777 10.777 0 0 0-10.765-10.765H51.411A10.777 10.777 0 0 0 40.649 152.7v52.011a10.777 10.777 0 0 0 10.762 10.764"/><path fill="#3f3d56" d="M51.411 215.475h46.128a10.777 10.777 0 0 0 10.764-10.765V152.7a10.777 10.777 0 0 0-10.765-10.765H51.411a10.777 10.777 0 0 0-10.764 10.764c-5.169 16.364-4.644 33.8 0 52.011a10.777 10.777 0 0 0 10.764 10.765m46.128-72.069a9.3 9.3 0 0 1 9.294 9.294v52.011a9.3 9.3 0 0 1-9.294 9.294H51.411a9.3 9.3 0 0 1-9.294-9.294V152.7a9.3 9.3 0 0 1 9.294-9.294z"/><path fill="#f2f2f2" d="M56.068 173.557h38.007a2.924 2.924 0 0 0 0-5.847H56.068a2.924 2.924 0 1 0 0 5.847m0 16.179h38.007a2.924 2.924 0 0 0 0-5.847H56.068a2.924 2.924 0 1 0 0 5.847"/></svg>